<?xml version="1.0" encoding="utf-8" standalone="no"?>
<!DOCTYPE svg PUBLIC "-//W3C//DTD SVG 1.1//EN"
  "http://www.w3.org/Graphics/SVG/1.1/DTD/svg11.dtd">
<svg xmlns:xlink="http://www.w3.org/1999/xlink" width="576pt" height="360pt" viewBox="0 0 576 360" xmlns="http://www.w3.org/2000/svg" version="1.1">
 <metadata>
  <rdf:RDF xmlns:dc="http://purl.org/dc/elements/1.1/" xmlns:cc="http://creativecommons.org/ns#" xmlns:rdf="http://www.w3.org/1999/02/22-rdf-syntax-ns#">
   <cc:Work>
    <dc:type rdf:resource="http://purl.org/dc/dcmitype/StillImage"/>
    <dc:date>2026-07-07T16:04:09.678801</dc:date>
    <dc:format>image/svg+xml</dc:format>
    <dc:creator>
     <cc:Agent>
      <dc:title>Matplotlib v3.10.8, https://matplotlib.org/</dc:title>
     </cc:Agent>
    </dc:creator>
   </cc:Work>
  </rdf:RDF>
 </metadata>
 <defs>
  <style type="text/css">*{stroke-linejoin: round; stroke-linecap: butt}</style>
 </defs>
 <g id="figure_1">
  <g id="patch_1">
   <path d="M 0 360 
L 576 360 
L 576 0 
L 0 0 
z
" style="fill: #ffffff"/>
  </g>
  <g id="axes_1">
   <g id="patch_2">
    <path d="M 47.81 318.04 
L 565.2 318.04 
L 565.2 26.88 
L 47.81 26.88 
z
" style="fill: #ffffff"/>
   </g>
   <g id="matplotlib.axis_1">
    <g id="xtick_1">
     <g id="line2d_1">
      <path d="M 55.108605 318.04 
L 55.108605 26.88 
" clip-path="url(#p981727e785)" style="fill: none; stroke: #b0b0b0; stroke-opacity: 0.3; stroke-width: 0.8; stroke-linecap: square"/>
     </g>
     <g id="line2d_2">
      <defs>
       <path id="mc126e96aba" d="M 0 0 
L 0 3.5 
" style="stroke: #000000; stroke-width: 0.8"/>
      </defs>
      <g>
       <use xlink:href="#mc126e96aba" x="55.108605" y="318.04" style="stroke: #000000; stroke-width: 0.8"/>
      </g>
     </g>
     <g id="text_1">
      <!-- 0 -->
      <g transform="translate(51.927355 332.638438) scale(0.1 -0.1)">
       <defs>
        <path id="DejaVuSans-30" d="M 2034 4250 
Q 1547 4250 1301 3770 
Q 1056 3291 1056 2328 
Q 1056 1369 1301 889 
Q 1547 409 2034 409 
Q 2525 409 2770 889 
Q 3016 1369 3016 2328 
Q 3016 3291 2770 3770 
Q 2525 4250 2034 4250 
z
M 2034 4750 
Q 2819 4750 3233 4129 
Q 3647 3509 3647 2328 
Q 3647 1150 3233 529 
Q 2819 -91 2034 -91 
Q 1250 -91 836 529 
Q 422 1150 422 2328 
Q 422 3509 836 4129 
Q 1250 4750 2034 4750 
z
" transform="scale(0.015625)"/>
       </defs>
       <use xlink:href="#DejaVuSans-30"/>
      </g>
     </g>
    </g>
    <g id="xtick_2">
     <g id="line2d_3">
      <path d="M 136.204216 318.04 
L 136.204216 26.88 
" clip-path="url(#p981727e785)" style="fill: none; stroke: #b0b0b0; stroke-opacity: 0.3; stroke-width: 0.8; stroke-linecap: square"/>
     </g>
     <g id="line2d_4">
      <g>
       <use xlink:href="#mc126e96aba" x="136.204216" y="318.04" style="stroke: #000000; stroke-width: 0.8"/>
      </g>
     </g>
     <g id="text_2">
      <!-- 5 -->
      <g transform="translate(133.022966 332.638438) scale(0.1 -0.1)">
       <defs>
        <path id="DejaVuSans-35" d="M 691 4666 
L 3169 4666 
L 3169 4134 
L 1269 4134 
L 1269 2991 
Q 1406 3038 1543 3061 
Q 1681 3084 1819 3084 
Q 2600 3084 3056 2656 
Q 3513 2228 3513 1497 
Q 3513 744 3044 326 
Q 2575 -91 1722 -91 
Q 1428 -91 1123 -41 
Q 819 9 494 109 
L 494 744 
Q 775 591 1075 516 
Q 1375 441 1709 441 
Q 2250 441 2565 725 
Q 2881 1009 2881 1497 
Q 2881 1984 2565 2268 
Q 2250 2553 1709 2553 
Q 1456 2553 1204 2497 
Q 953 2441 691 2322 
L 691 4666 
z
" transform="scale(0.015625)"/>
       </defs>
       <use xlink:href="#DejaVuSans-35"/>
      </g>
     </g>
    </g>
    <g id="xtick_3">
     <g id="line2d_5">
      <path d="M 217.299828 318.04 
L 217.299828 26.88 
" clip-path="url(#p981727e785)" style="fill: none; stroke: #b0b0b0; stroke-opacity: 0.3; stroke-width: 0.8; stroke-linecap: square"/>
     </g>
     <g id="line2d_6">
      <g>
       <use xlink:href="#mc126e96aba" x="217.299828" y="318.04" style="stroke: #000000; stroke-width: 0.8"/>
      </g>
     </g>
     <g id="text_3">
      <!-- 10 -->
      <g transform="translate(210.937328 332.638438) scale(0.1 -0.1)">
       <defs>
        <path id="DejaVuSans-31" d="M 794 531 
L 1825 531 
L 1825 4091 
L 703 3866 
L 703 4441 
L 1819 4666 
L 2450 4666 
L 2450 531 
L 3481 531 
L 3481 0 
L 794 0 
L 794 531 
z
" transform="scale(0.015625)"/>
       </defs>
       <use xlink:href="#DejaVuSans-31"/>
       <use xlink:href="#DejaVuSans-30" transform="translate(63.623047 0)"/>
      </g>
     </g>
    </g>
    <g id="xtick_4">
     <g id="line2d_7">
      <path d="M 298.395439 318.04 
L 298.395439 26.88 
" clip-path="url(#p981727e785)" style="fill: none; stroke: #b0b0b0; stroke-opacity: 0.3; stroke-width: 0.8; stroke-linecap: square"/>
     </g>
     <g id="line2d_8">
      <g>
       <use xlink:href="#mc126e96aba" x="298.395439" y="318.04" style="stroke: #000000; stroke-width: 0.8"/>
      </g>
     </g>
     <g id="text_4">
      <!-- 15 -->
      <g transform="translate(292.032939 332.638438) scale(0.1 -0.1)">
       <use xlink:href="#DejaVuSans-31"/>
       <use xlink:href="#DejaVuSans-35" transform="translate(63.623047 0)"/>
      </g>
     </g>
    </g>
    <g id="xtick_5">
     <g id="line2d_9">
      <path d="M 379.49105 318.04 
L 379.49105 26.88 
" clip-path="url(#p981727e785)" style="fill: none; stroke: #b0b0b0; stroke-opacity: 0.3; stroke-width: 0.8; stroke-linecap: square"/>
     </g>
     <g id="line2d_10">
      <g>
       <use xlink:href="#mc126e96aba" x="379.49105" y="318.04" style="stroke: #000000; stroke-width: 0.8"/>
      </g>
     </g>
     <g id="text_5">
      <!-- 20 -->
      <g transform="translate(373.12855 332.638438) scale(0.1 -0.1)">
       <defs>
        <path id="DejaVuSans-32" d="M 1228 531 
L 3431 531 
L 3431 0 
L 469 0 
L 469 531 
Q 828 903 1448 1529 
Q 2069 2156 2228 2338 
Q 2531 2678 2651 2914 
Q 2772 3150 2772 3378 
Q 2772 3750 2511 3984 
Q 2250 4219 1831 4219 
Q 1534 4219 1204 4116 
Q 875 4013 500 3803 
L 500 4441 
Q 881 4594 1212 4672 
Q 1544 4750 1819 4750 
Q 2544 4750 2975 4387 
Q 3406 4025 3406 3419 
Q 3406 3131 3298 2873 
Q 3191 2616 2906 2266 
Q 2828 2175 2409 1742 
Q 1991 1309 1228 531 
z
" transform="scale(0.015625)"/>
       </defs>
       <use xlink:href="#DejaVuSans-32"/>
       <use xlink:href="#DejaVuSans-30" transform="translate(63.623047 0)"/>
      </g>
     </g>
    </g>
    <g id="xtick_6">
     <g id="line2d_11">
      <path d="M 460.586661 318.04 
L 460.586661 26.88 
" clip-path="url(#p981727e785)" style="fill: none; stroke: #b0b0b0; stroke-opacity: 0.3; stroke-width: 0.8; stroke-linecap: square"/>
     </g>
     <g id="line2d_12">
      <g>
       <use xlink:href="#mc126e96aba" x="460.586661" y="318.04" style="stroke: #000000; stroke-width: 0.8"/>
      </g>
     </g>
     <g id="text_6">
      <!-- 25 -->
      <g transform="translate(454.224161 332.638438) scale(0.1 -0.1)">
       <use xlink:href="#DejaVuSans-32"/>
       <use xlink:href="#DejaVuSans-35" transform="translate(63.623047 0)"/>
      </g>
     </g>
    </g>
    <g id="xtick_7">
     <g id="line2d_13">
      <path d="M 541.682273 318.04 
L 541.682273 26.88 
" clip-path="url(#p981727e785)" style="fill: none; stroke: #b0b0b0; stroke-opacity: 0.3; stroke-width: 0.8; stroke-linecap: square"/>
     </g>
     <g id="line2d_14">
      <g>
       <use xlink:href="#mc126e96aba" x="541.682273" y="318.04" style="stroke: #000000; stroke-width: 0.8"/>
      </g>
     </g>
     <g id="text_7">
      <!-- 30 -->
      <g transform="translate(535.319773 332.638438) scale(0.1 -0.1)">
       <defs>
        <path id="DejaVuSans-33" d="M 2597 2516 
Q 3050 2419 3304 2112 
Q 3559 1806 3559 1356 
Q 3559 666 3084 287 
Q 2609 -91 1734 -91 
Q 1441 -91 1130 -33 
Q 819 25 488 141 
L 488 750 
Q 750 597 1062 519 
Q 1375 441 1716 441 
Q 2309 441 2620 675 
Q 2931 909 2931 1356 
Q 2931 1769 2642 2001 
Q 2353 2234 1838 2234 
L 1294 2234 
L 1294 2753 
L 1863 2753 
Q 2328 2753 2575 2939 
Q 2822 3125 2822 3475 
Q 2822 3834 2567 4026 
Q 2313 4219 1838 4219 
Q 1578 4219 1281 4162 
Q 984 4106 628 3988 
L 628 4550 
Q 988 4650 1302 4700 
Q 1616 4750 1894 4750 
Q 2613 4750 3031 4423 
Q 3450 4097 3450 3541 
Q 3450 3153 3228 2886 
Q 3006 2619 2597 2516 
z
" transform="scale(0.015625)"/>
       </defs>
       <use xlink:href="#DejaVuSans-33"/>
       <use xlink:href="#DejaVuSans-30" transform="translate(63.623047 0)"/>
      </g>
     </g>
    </g>
    <g id="text_8">
     <!-- Epoch -->
     <g transform="translate(291.194062 346.316563) scale(0.1 -0.1)">
      <defs>
       <path id="DejaVuSans-45" d="M 628 4666 
L 3578 4666 
L 3578 4134 
L 1259 4134 
L 1259 2753 
L 3481 2753 
L 3481 2222 
L 1259 2222 
L 1259 531 
L 3634 531 
L 3634 0 
L 628 0 
L 628 4666 
z
" transform="scale(0.015625)"/>
       <path id="DejaVuSans-70" d="M 1159 525 
L 1159 -1331 
L 581 -1331 
L 581 3500 
L 1159 3500 
L 1159 2969 
Q 1341 3281 1617 3432 
Q 1894 3584 2278 3584 
Q 2916 3584 3314 3078 
Q 3713 2572 3713 1747 
Q 3713 922 3314 415 
Q 2916 -91 2278 -91 
Q 1894 -91 1617 61 
Q 1341 213 1159 525 
z
M 3116 1747 
Q 3116 2381 2855 2742 
Q 2594 3103 2138 3103 
Q 1681 3103 1420 2742 
Q 1159 2381 1159 1747 
Q 1159 1113 1420 752 
Q 1681 391 2138 391 
Q 2594 391 2855 752 
Q 3116 1113 3116 1747 
z
" transform="scale(0.015625)"/>
       <path id="DejaVuSans-6f" d="M 1959 3097 
Q 1497 3097 1228 2736 
Q 959 2375 959 1747 
Q 959 1119 1226 758 
Q 1494 397 1959 397 
Q 2419 397 2687 759 
Q 2956 1122 2956 1747 
Q 2956 2369 2687 2733 
Q 2419 3097 1959 3097 
z
M 1959 3584 
Q 2709 3584 3137 3096 
Q 3566 2609 3566 1747 
Q 3566 888 3137 398 
Q 2709 -91 1959 -91 
Q 1206 -91 779 398 
Q 353 888 353 1747 
Q 353 2609 779 3096 
Q 1206 3584 1959 3584 
z
" transform="scale(0.015625)"/>
       <path id="DejaVuSans-63" d="M 3122 3366 
L 3122 2828 
Q 2878 2963 2633 3030 
Q 2388 3097 2138 3097 
Q 1578 3097 1268 2742 
Q 959 2388 959 1747 
Q 959 1106 1268 751 
Q 1578 397 2138 397 
Q 2388 397 2633 464 
Q 2878 531 3122 666 
L 3122 134 
Q 2881 22 2623 -34 
Q 2366 -91 2075 -91 
Q 1284 -91 818 406 
Q 353 903 353 1747 
Q 353 2603 823 3093 
Q 1294 3584 2113 3584 
Q 2378 3584 2631 3529 
Q 2884 3475 3122 3366 
z
" transform="scale(0.015625)"/>
       <path id="DejaVuSans-68" d="M 3513 2113 
L 3513 0 
L 2938 0 
L 2938 2094 
Q 2938 2591 2744 2837 
Q 2550 3084 2163 3084 
Q 1697 3084 1428 2787 
Q 1159 2491 1159 1978 
L 1159 0 
L 581 0 
L 581 4863 
L 1159 4863 
L 1159 2956 
Q 1366 3272 1645 3428 
Q 1925 3584 2291 3584 
Q 2894 3584 3203 3211 
Q 3513 2838 3513 2113 
z
" transform="scale(0.015625)"/>
      </defs>
      <use xlink:href="#DejaVuSans-45"/>
      <use xlink:href="#DejaVuSans-70" transform="translate(63.183594 0)"/>
      <use xlink:href="#DejaVuSans-6f" transform="translate(126.660156 0)"/>
      <use xlink:href="#DejaVuSans-63" transform="translate(187.841797 0)"/>
      <use xlink:href="#DejaVuSans-68" transform="translate(242.822266 0)"/>
     </g>
    </g>
   </g>
   <g id="matplotlib.axis_2">
    <g id="ytick_1">
     <g id="line2d_15">
      <path d="M 47.81 270.959217 
L 565.2 270.959217 
" clip-path="url(#p981727e785)" style="fill: none; stroke: #b0b0b0; stroke-opacity: 0.3; stroke-width: 0.8; stroke-linecap: square"/>
     </g>
     <g id="line2d_16">
      <defs>
       <path id="m8ba2ad1cfd" d="M 0 0 
L -3.5 0 
" style="stroke: #000000; stroke-width: 0.8"/>
      </defs>
      <g>
       <use xlink:href="#m8ba2ad1cfd" x="47.81" y="270.959217" style="stroke: #000000; stroke-width: 0.8"/>
      </g>
     </g>
     <g id="text_9">
      <!-- 0.8 -->
      <g transform="translate(24.906875 274.758436) scale(0.1 -0.1)">
       <defs>
        <path id="DejaVuSans-2e" d="M 684 794 
L 1344 794 
L 1344 0 
L 684 0 
L 684 794 
z
" transform="scale(0.015625)"/>
        <path id="DejaVuSans-38" d="M 2034 2216 
Q 1584 2216 1326 1975 
Q 1069 1734 1069 1313 
Q 1069 891 1326 650 
Q 1584 409 2034 409 
Q 2484 409 2743 651 
Q 3003 894 3003 1313 
Q 3003 1734 2745 1975 
Q 2488 2216 2034 2216 
z
M 1403 2484 
Q 997 2584 770 2862 
Q 544 3141 544 3541 
Q 544 4100 942 4425 
Q 1341 4750 2034 4750 
Q 2731 4750 3128 4425 
Q 3525 4100 3525 3541 
Q 3525 3141 3298 2862 
Q 3072 2584 2669 2484 
Q 3125 2378 3379 2068 
Q 3634 1759 3634 1313 
Q 3634 634 3220 271 
Q 2806 -91 2034 -91 
Q 1263 -91 848 271 
Q 434 634 434 1313 
Q 434 1759 690 2068 
Q 947 2378 1403 2484 
z
M 1172 3481 
Q 1172 3119 1398 2916 
Q 1625 2713 2034 2713 
Q 2441 2713 2670 2916 
Q 2900 3119 2900 3481 
Q 2900 3844 2670 4047 
Q 2441 4250 2034 4250 
Q 1625 4250 1398 4047 
Q 1172 3844 1172 3481 
z
" transform="scale(0.015625)"/>
       </defs>
       <use xlink:href="#DejaVuSans-30"/>
       <use xlink:href="#DejaVuSans-2e" transform="translate(63.623047 0)"/>
       <use xlink:href="#DejaVuSans-38" transform="translate(95.410156 0)"/>
      </g>
     </g>
    </g>
    <g id="ytick_2">
     <g id="line2d_17">
      <path d="M 47.81 211.874035 
L 565.2 211.874035 
" clip-path="url(#p981727e785)" style="fill: none; stroke: #b0b0b0; stroke-opacity: 0.3; stroke-width: 0.8; stroke-linecap: square"/>
     </g>
     <g id="line2d_18">
      <g>
       <use xlink:href="#m8ba2ad1cfd" x="47.81" y="211.874035" style="stroke: #000000; stroke-width: 0.8"/>
      </g>
     </g>
     <g id="text_10">
      <!-- 1.0 -->
      <g transform="translate(24.906875 215.673254) scale(0.1 -0.1)">
       <use xlink:href="#DejaVuSans-31"/>
       <use xlink:href="#DejaVuSans-2e" transform="translate(63.623047 0)"/>
       <use xlink:href="#DejaVuSans-30" transform="translate(95.410156 0)"/>
      </g>
     </g>
    </g>
    <g id="ytick_3">
     <g id="line2d_19">
      <path d="M 47.81 152.788853 
L 565.2 152.788853 
" clip-path="url(#p981727e785)" style="fill: none; stroke: #b0b0b0; stroke-opacity: 0.3; stroke-width: 0.8; stroke-linecap: square"/>
     </g>
     <g id="line2d_20">
      <g>
       <use xlink:href="#m8ba2ad1cfd" x="47.81" y="152.788853" style="stroke: #000000; stroke-width: 0.8"/>
      </g>
     </g>
     <g id="text_11">
      <!-- 1.2 -->
      <g transform="translate(24.906875 156.588072) scale(0.1 -0.1)">
       <use xlink:href="#DejaVuSans-31"/>
       <use xlink:href="#DejaVuSans-2e" transform="translate(63.623047 0)"/>
       <use xlink:href="#DejaVuSans-32" transform="translate(95.410156 0)"/>
      </g>
     </g>
    </g>
    <g id="ytick_4">
     <g id="line2d_21">
      <path d="M 47.81 93.703672 
L 565.2 93.703672 
" clip-path="url(#p981727e785)" style="fill: none; stroke: #b0b0b0; stroke-opacity: 0.3; stroke-width: 0.8; stroke-linecap: square"/>
     </g>
     <g id="line2d_22">
      <g>
       <use xlink:href="#m8ba2ad1cfd" x="47.81" y="93.703672" style="stroke: #000000; stroke-width: 0.8"/>
      </g>
     </g>
     <g id="text_12">
      <!-- 1.4 -->
      <g transform="translate(24.906875 97.50289) scale(0.1 -0.1)">
       <defs>
        <path id="DejaVuSans-34" d="M 2419 4116 
L 825 1625 
L 2419 1625 
L 2419 4116 
z
M 2253 4666 
L 3047 4666 
L 3047 1625 
L 3713 1625 
L 3713 1100 
L 3047 1100 
L 3047 0 
L 2419 0 
L 2419 1100 
L 313 1100 
L 313 1709 
L 2253 4666 
z
" transform="scale(0.015625)"/>
       </defs>
       <use xlink:href="#DejaVuSans-31"/>
       <use xlink:href="#DejaVuSans-2e" transform="translate(63.623047 0)"/>
       <use xlink:href="#DejaVuSans-34" transform="translate(95.410156 0)"/>
      </g>
     </g>
    </g>
    <g id="ytick_5">
     <g id="line2d_23">
      <path d="M 47.81 34.61849 
L 565.2 34.61849 
" clip-path="url(#p981727e785)" style="fill: none; stroke: #b0b0b0; stroke-opacity: 0.3; stroke-width: 0.8; stroke-linecap: square"/>
     </g>
     <g id="line2d_24">
      <g>
       <use xlink:href="#m8ba2ad1cfd" x="47.81" y="34.61849" style="stroke: #000000; stroke-width: 0.8"/>
      </g>
     </g>
     <g id="text_13">
      <!-- 1.6 -->
      <g transform="translate(24.906875 38.417709) scale(0.1 -0.1)">
       <defs>
        <path id="DejaVuSans-36" d="M 2113 2584 
Q 1688 2584 1439 2293 
Q 1191 2003 1191 1497 
Q 1191 994 1439 701 
Q 1688 409 2113 409 
Q 2538 409 2786 701 
Q 3034 994 3034 1497 
Q 3034 2003 2786 2293 
Q 2538 2584 2113 2584 
z
M 3366 4563 
L 3366 3988 
Q 3128 4100 2886 4159 
Q 2644 4219 2406 4219 
Q 1781 4219 1451 3797 
Q 1122 3375 1075 2522 
Q 1259 2794 1537 2939 
Q 1816 3084 2150 3084 
Q 2853 3084 3261 2657 
Q 3669 2231 3669 1497 
Q 3669 778 3244 343 
Q 2819 -91 2113 -91 
Q 1303 -91 875 529 
Q 447 1150 447 2328 
Q 447 3434 972 4092 
Q 1497 4750 2381 4750 
Q 2619 4750 2861 4703 
Q 3103 4656 3366 4563 
z
" transform="scale(0.015625)"/>
       </defs>
       <use xlink:href="#DejaVuSans-31"/>
       <use xlink:href="#DejaVuSans-2e" transform="translate(63.623047 0)"/>
       <use xlink:href="#DejaVuSans-36" transform="translate(95.410156 0)"/>
      </g>
     </g>
    </g>
    <g id="text_14">
     <!-- Loss -->
     <g transform="translate(18.827188 183.427188) rotate(-90) scale(0.1 -0.1)">
      <defs>
       <path id="DejaVuSans-4c" d="M 628 4666 
L 1259 4666 
L 1259 531 
L 3531 531 
L 3531 0 
L 628 0 
L 628 4666 
z
" transform="scale(0.015625)"/>
       <path id="DejaVuSans-73" d="M 2834 3397 
L 2834 2853 
Q 2591 2978 2328 3040 
Q 2066 3103 1784 3103 
Q 1356 3103 1142 2972 
Q 928 2841 928 2578 
Q 928 2378 1081 2264 
Q 1234 2150 1697 2047 
L 1894 2003 
Q 2506 1872 2764 1633 
Q 3022 1394 3022 966 
Q 3022 478 2636 193 
Q 2250 -91 1575 -91 
Q 1294 -91 989 -36 
Q 684 19 347 128 
L 347 722 
Q 666 556 975 473 
Q 1284 391 1588 391 
Q 1994 391 2212 530 
Q 2431 669 2431 922 
Q 2431 1156 2273 1281 
Q 2116 1406 1581 1522 
L 1381 1569 
Q 847 1681 609 1914 
Q 372 2147 372 2553 
Q 372 3047 722 3315 
Q 1072 3584 1716 3584 
Q 2034 3584 2315 3537 
Q 2597 3491 2834 3397 
z
" transform="scale(0.015625)"/>
      </defs>
      <use xlink:href="#DejaVuSans-4c"/>
      <use xlink:href="#DejaVuSans-6f" transform="translate(53.962891 0)"/>
      <use xlink:href="#DejaVuSans-73" transform="translate(115.144531 0)"/>
      <use xlink:href="#DejaVuSans-73" transform="translate(167.244141 0)"/>
     </g>
    </g>
   </g>
   <g id="line2d_25">
    <path d="M 71.327727 40.114545 
L 87.54685 126.848151 
L 103.765972 153.839476 
L 119.985094 172.272513 
L 136.204216 185.414909 
L 152.423339 196.700619 
L 168.642461 208.760456 
L 184.861583 215.096701 
L 201.080705 223.070607 
L 217.299828 229.457068 
L 233.51895 235.476854 
L 249.738072 240.309816 
L 265.957194 246.256838 
L 282.176317 251.647296 
L 298.395439 255.808042 
L 314.614561 259.855577 
L 330.833683 264.20901 
L 347.052806 269.234256 
L 363.271928 272.414578 
L 379.49105 277.215001 
L 395.710172 280.335843 
L 411.929295 281.625759 
L 428.148417 285.314822 
L 444.367539 287.984609 
L 460.586661 292.78178 
L 476.805784 294.755854 
L 493.024906 296.051951 
L 509.244028 298.493585 
L 525.46315 300.844595 
L 541.682273 304.805455 
" clip-path="url(#p981727e785)" style="fill: none; stroke: #1f77b4; stroke-width: 1.5; stroke-linecap: square"/>
    <defs>
     <path id="mbff38e684a" d="M 0 3 
C 0.795609 3 1.55874 2.683901 2.12132 2.12132 
C 2.683901 1.55874 3 0.795609 3 0 
C 3 -0.795609 2.683901 -1.55874 2.12132 -2.12132 
C 1.55874 -2.683901 0.795609 -3 0 -3 
C -0.795609 -3 -1.55874 -2.683901 -2.12132 -2.12132 
C -2.683901 -1.55874 -3 -0.795609 -3 0 
C -3 0.795609 -2.683901 1.55874 -2.12132 2.12132 
C -1.55874 2.683901 -0.795609 3 0 3 
z
" style="stroke: #1f77b4"/>
    </defs>
    <g clip-path="url(#p981727e785)">
     <use xlink:href="#mbff38e684a" x="71.327727" y="40.114545" style="fill: #1f77b4; stroke: #1f77b4"/>
     <use xlink:href="#mbff38e684a" x="87.54685" y="126.848151" style="fill: #1f77b4; stroke: #1f77b4"/>
     <use xlink:href="#mbff38e684a" x="103.765972" y="153.839476" style="fill: #1f77b4; stroke: #1f77b4"/>
     <use xlink:href="#mbff38e684a" x="119.985094" y="172.272513" style="fill: #1f77b4; stroke: #1f77b4"/>
     <use xlink:href="#mbff38e684a" x="136.204216" y="185.414909" style="fill: #1f77b4; stroke: #1f77b4"/>
     <use xlink:href="#mbff38e684a" x="152.423339" y="196.700619" style="fill: #1f77b4; stroke: #1f77b4"/>
     <use xlink:href="#mbff38e684a" x="168.642461" y="208.760456" style="fill: #1f77b4; stroke: #1f77b4"/>
     <use xlink:href="#mbff38e684a" x="184.861583" y="215.096701" style="fill: #1f77b4; stroke: #1f77b4"/>
     <use xlink:href="#mbff38e684a" x="201.080705" y="223.070607" style="fill: #1f77b4; stroke: #1f77b4"/>
     <use xlink:href="#mbff38e684a" x="217.299828" y="229.457068" style="fill: #1f77b4; stroke: #1f77b4"/>
     <use xlink:href="#mbff38e684a" x="233.51895" y="235.476854" style="fill: #1f77b4; stroke: #1f77b4"/>
     <use xlink:href="#mbff38e684a" x="249.738072" y="240.309816" style="fill: #1f77b4; stroke: #1f77b4"/>
     <use xlink:href="#mbff38e684a" x="265.957194" y="246.256838" style="fill: #1f77b4; stroke: #1f77b4"/>
     <use xlink:href="#mbff38e684a" x="282.176317" y="251.647296" style="fill: #1f77b4; stroke: #1f77b4"/>
     <use xlink:href="#mbff38e684a" x="298.395439" y="255.808042" style="fill: #1f77b4; stroke: #1f77b4"/>
     <use xlink:href="#mbff38e684a" x="314.614561" y="259.855577" style="fill: #1f77b4; stroke: #1f77b4"/>
     <use xlink:href="#mbff38e684a" x="330.833683" y="264.20901" style="fill: #1f77b4; stroke: #1f77b4"/>
     <use xlink:href="#mbff38e684a" x="347.052806" y="269.234256" style="fill: #1f77b4; stroke: #1f77b4"/>
     <use xlink:href="#mbff38e684a" x="363.271928" y="272.414578" style="fill: #1f77b4; stroke: #1f77b4"/>
     <use xlink:href="#mbff38e684a" x="379.49105" y="277.215001" style="fill: #1f77b4; stroke: #1f77b4"/>
     <use xlink:href="#mbff38e684a" x="395.710172" y="280.335843" style="fill: #1f77b4; stroke: #1f77b4"/>
     <use xlink:href="#mbff38e684a" x="411.929295" y="281.625759" style="fill: #1f77b4; stroke: #1f77b4"/>
     <use xlink:href="#mbff38e684a" x="428.148417" y="285.314822" style="fill: #1f77b4; stroke: #1f77b4"/>
     <use xlink:href="#mbff38e684a" x="444.367539" y="287.984609" style="fill: #1f77b4; stroke: #1f77b4"/>
     <use xlink:href="#mbff38e684a" x="460.586661" y="292.78178" style="fill: #1f77b4; stroke: #1f77b4"/>
     <use xlink:href="#mbff38e684a" x="476.805784" y="294.755854" style="fill: #1f77b4; stroke: #1f77b4"/>
     <use xlink:href="#mbff38e684a" x="493.024906" y="296.051951" style="fill: #1f77b4; stroke: #1f77b4"/>
     <use xlink:href="#mbff38e684a" x="509.244028" y="298.493585" style="fill: #1f77b4; stroke: #1f77b4"/>
     <use xlink:href="#mbff38e684a" x="525.46315" y="300.844595" style="fill: #1f77b4; stroke: #1f77b4"/>
     <use xlink:href="#mbff38e684a" x="541.682273" y="304.805455" style="fill: #1f77b4; stroke: #1f77b4"/>
    </g>
   </g>
   <g id="line2d_26">
    <path d="M 71.327727 106.032958 
L 87.54685 135.211275 
L 103.765972 149.762597 
L 119.985094 159.613628 
L 136.204216 163.28617 
L 152.423339 172.251396 
L 168.642461 167.49553 
L 184.861583 179.016024 
L 201.080705 182.09064 
L 217.299828 181.64438 
L 233.51895 187.512729 
L 249.738072 176.964465 
L 265.957194 178.595121 
L 282.176317 180.240803 
L 298.395439 189.66453 
L 314.614561 194.147412 
L 330.833683 185.867243 
L 347.052806 195.556771 
L 363.271928 196.514917 
L 379.49105 196.063067 
L 395.710172 193.931003 
L 411.929295 194.962204 
L 428.148417 189.527843 
L 444.367539 192.184093 
L 460.586661 192.34172 
L 476.805784 190.213526 
L 493.024906 191.531158 
L 509.244028 186.839976 
L 525.46315 177.987509 
L 541.682273 186.507965 
" clip-path="url(#p981727e785)" style="fill: none; stroke: #ff7f0e; stroke-width: 1.5; stroke-linecap: square"/>
    <defs>
     <path id="mfa36945d49" d="M -3 3 
L 3 -3 
M -3 -3 
L 3 3 
" style="stroke: #ff7f0e"/>
    </defs>
    <g clip-path="url(#p981727e785)">
     <use xlink:href="#mfa36945d49" x="71.327727" y="106.032958" style="fill: #ff7f0e; stroke: #ff7f0e"/>
     <use xlink:href="#mfa36945d49" x="87.54685" y="135.211275" style="fill: #ff7f0e; stroke: #ff7f0e"/>
     <use xlink:href="#mfa36945d49" x="103.765972" y="149.762597" style="fill: #ff7f0e; stroke: #ff7f0e"/>
     <use xlink:href="#mfa36945d49" x="119.985094" y="159.613628" style="fill: #ff7f0e; stroke: #ff7f0e"/>
     <use xlink:href="#mfa36945d49" x="136.204216" y="163.28617" style="fill: #ff7f0e; stroke: #ff7f0e"/>
     <use xlink:href="#mfa36945d49" x="152.423339" y="172.251396" style="fill: #ff7f0e; stroke: #ff7f0e"/>
     <use xlink:href="#mfa36945d49" x="168.642461" y="167.49553" style="fill: #ff7f0e; stroke: #ff7f0e"/>
     <use xlink:href="#mfa36945d49" x="184.861583" y="179.016024" style="fill: #ff7f0e; stroke: #ff7f0e"/>
     <use xlink:href="#mfa36945d49" x="201.080705" y="182.09064" style="fill: #ff7f0e; stroke: #ff7f0e"/>
     <use xlink:href="#mfa36945d49" x="217.299828" y="181.64438" style="fill: #ff7f0e; stroke: #ff7f0e"/>
     <use xlink:href="#mfa36945d49" x="233.51895" y="187.512729" style="fill: #ff7f0e; stroke: #ff7f0e"/>
     <use xlink:href="#mfa36945d49" x="249.738072" y="176.964465" style="fill: #ff7f0e; stroke: #ff7f0e"/>
     <use xlink:href="#mfa36945d49" x="265.957194" y="178.595121" style="fill: #ff7f0e; stroke: #ff7f0e"/>
     <use xlink:href="#mfa36945d49" x="282.176317" y="180.240803" style="fill: #ff7f0e; stroke: #ff7f0e"/>
     <use xlink:href="#mfa36945d49" x="298.395439" y="189.66453" style="fill: #ff7f0e; stroke: #ff7f0e"/>
     <use xlink:href="#mfa36945d49" x="314.614561" y="194.147412" style="fill: #ff7f0e; stroke: #ff7f0e"/>
     <use xlink:href="#mfa36945d49" x="330.833683" y="185.867243" style="fill: #ff7f0e; stroke: #ff7f0e"/>
     <use xlink:href="#mfa36945d49" x="347.052806" y="195.556771" style="fill: #ff7f0e; stroke: #ff7f0e"/>
     <use xlink:href="#mfa36945d49" x="363.271928" y="196.514917" style="fill: #ff7f0e; stroke: #ff7f0e"/>
     <use xlink:href="#mfa36945d49" x="379.49105" y="196.063067" style="fill: #ff7f0e; stroke: #ff7f0e"/>
     <use xlink:href="#mfa36945d49" x="395.710172" y="193.931003" style="fill: #ff7f0e; stroke: #ff7f0e"/>
     <use xlink:href="#mfa36945d49" x="411.929295" y="194.962204" style="fill: #ff7f0e; stroke: #ff7f0e"/>
     <use xlink:href="#mfa36945d49" x="428.148417" y="189.527843" style="fill: #ff7f0e; stroke: #ff7f0e"/>
     <use xlink:href="#mfa36945d49" x="444.367539" y="192.184093" style="fill: #ff7f0e; stroke: #ff7f0e"/>
     <use xlink:href="#mfa36945d49" x="460.586661" y="192.34172" style="fill: #ff7f0e; stroke: #ff7f0e"/>
     <use xlink:href="#mfa36945d49" x="476.805784" y="190.213526" style="fill: #ff7f0e; stroke: #ff7f0e"/>
     <use xlink:href="#mfa36945d49" x="493.024906" y="191.531158" style="fill: #ff7f0e; stroke: #ff7f0e"/>
     <use xlink:href="#mfa36945d49" x="509.244028" y="186.839976" style="fill: #ff7f0e; stroke: #ff7f0e"/>
     <use xlink:href="#mfa36945d49" x="525.46315" y="177.987509" style="fill: #ff7f0e; stroke: #ff7f0e"/>
     <use xlink:href="#mfa36945d49" x="541.682273" y="186.507965" style="fill: #ff7f0e; stroke: #ff7f0e"/>
    </g>
   </g>
   <g id="patch_3">
    <path d="M 47.81 318.04 
L 47.81 26.88 
" style="fill: none; stroke: #000000; stroke-width: 0.8; stroke-linejoin: miter; stroke-linecap: square"/>
   </g>
   <g id="patch_4">
    <path d="M 565.2 318.04 
L 565.2 26.88 
" style="fill: none; stroke: #000000; stroke-width: 0.8; stroke-linejoin: miter; stroke-linecap: square"/>
   </g>
   <g id="patch_5">
    <path d="M 47.81 318.04 
L 565.2 318.04 
" style="fill: none; stroke: #000000; stroke-width: 0.8; stroke-linejoin: miter; stroke-linecap: square"/>
   </g>
   <g id="patch_6">
    <path d="M 47.81 26.88 
L 565.2 26.88 
" style="fill: none; stroke: #000000; stroke-width: 0.8; stroke-linejoin: miter; stroke-linecap: square"/>
   </g>
   <g id="text_15">
    <!-- Best Val Loss: 1.0520 @ epoch 19 -->
    <g transform="translate(363.271928 196.514917) scale(0.1 -0.1)">
     <defs>
      <path id="DejaVuSans-42" d="M 1259 2228 
L 1259 519 
L 2272 519 
Q 2781 519 3026 730 
Q 3272 941 3272 1375 
Q 3272 1813 3026 2020 
Q 2781 2228 2272 2228 
L 1259 2228 
z
M 1259 4147 
L 1259 2741 
L 2194 2741 
Q 2656 2741 2882 2914 
Q 3109 3088 3109 3444 
Q 3109 3797 2882 3972 
Q 2656 4147 2194 4147 
L 1259 4147 
z
M 628 4666 
L 2241 4666 
Q 2963 4666 3353 4366 
Q 3744 4066 3744 3513 
Q 3744 3084 3544 2831 
Q 3344 2578 2956 2516 
Q 3422 2416 3680 2098 
Q 3938 1781 3938 1306 
Q 3938 681 3513 340 
Q 3088 0 2303 0 
L 628 0 
L 628 4666 
z
" transform="scale(0.015625)"/>
      <path id="DejaVuSans-65" d="M 3597 1894 
L 3597 1613 
L 953 1613 
Q 991 1019 1311 708 
Q 1631 397 2203 397 
Q 2534 397 2845 478 
Q 3156 559 3463 722 
L 3463 178 
Q 3153 47 2828 -22 
Q 2503 -91 2169 -91 
Q 1331 -91 842 396 
Q 353 884 353 1716 
Q 353 2575 817 3079 
Q 1281 3584 2069 3584 
Q 2775 3584 3186 3129 
Q 3597 2675 3597 1894 
z
M 3022 2063 
Q 3016 2534 2758 2815 
Q 2500 3097 2075 3097 
Q 1594 3097 1305 2825 
Q 1016 2553 972 2059 
L 3022 2063 
z
" transform="scale(0.015625)"/>
      <path id="DejaVuSans-74" d="M 1172 4494 
L 1172 3500 
L 2356 3500 
L 2356 3053 
L 1172 3053 
L 1172 1153 
Q 1172 725 1289 603 
Q 1406 481 1766 481 
L 2356 481 
L 2356 0 
L 1766 0 
Q 1100 0 847 248 
Q 594 497 594 1153 
L 594 3053 
L 172 3053 
L 172 3500 
L 594 3500 
L 594 4494 
L 1172 4494 
z
" transform="scale(0.015625)"/>
      <path id="DejaVuSans-20" transform="scale(0.015625)"/>
      <path id="DejaVuSans-56" d="M 1831 0 
L 50 4666 
L 709 4666 
L 2188 738 
L 3669 4666 
L 4325 4666 
L 2547 0 
L 1831 0 
z
" transform="scale(0.015625)"/>
      <path id="DejaVuSans-61" d="M 2194 1759 
Q 1497 1759 1228 1600 
Q 959 1441 959 1056 
Q 959 750 1161 570 
Q 1363 391 1709 391 
Q 2188 391 2477 730 
Q 2766 1069 2766 1631 
L 2766 1759 
L 2194 1759 
z
M 3341 1997 
L 3341 0 
L 2766 0 
L 2766 531 
Q 2569 213 2275 61 
Q 1981 -91 1556 -91 
Q 1019 -91 701 211 
Q 384 513 384 1019 
Q 384 1609 779 1909 
Q 1175 2209 1959 2209 
L 2766 2209 
L 2766 2266 
Q 2766 2663 2505 2880 
Q 2244 3097 1772 3097 
Q 1472 3097 1187 3025 
Q 903 2953 641 2809 
L 641 3341 
Q 956 3463 1253 3523 
Q 1550 3584 1831 3584 
Q 2591 3584 2966 3190 
Q 3341 2797 3341 1997 
z
" transform="scale(0.015625)"/>
      <path id="DejaVuSans-6c" d="M 603 4863 
L 1178 4863 
L 1178 0 
L 603 0 
L 603 4863 
z
" transform="scale(0.015625)"/>
      <path id="DejaVuSans-3a" d="M 750 794 
L 1409 794 
L 1409 0 
L 750 0 
L 750 794 
z
M 750 3309 
L 1409 3309 
L 1409 2516 
L 750 2516 
L 750 3309 
z
" transform="scale(0.015625)"/>
      <path id="DejaVuSans-40" d="M 2381 1678 
Q 2381 1231 2603 976 
Q 2825 722 3213 722 
Q 3597 722 3817 978 
Q 4038 1234 4038 1678 
Q 4038 2116 3813 2373 
Q 3588 2631 3206 2631 
Q 2828 2631 2604 2375 
Q 2381 2119 2381 1678 
z
M 4084 744 
Q 3897 503 3655 389 
Q 3413 275 3091 275 
Q 2553 275 2217 664 
Q 1881 1053 1881 1678 
Q 1881 2303 2218 2693 
Q 2556 3084 3091 3084 
Q 3413 3084 3656 2967 
Q 3900 2850 4084 2613 
L 4084 3022 
L 4531 3022 
L 4531 722 
Q 4988 791 5245 1139 
Q 5503 1488 5503 2041 
Q 5503 2375 5404 2669 
Q 5306 2963 5106 3213 
Q 4781 3622 4314 3839 
Q 3847 4056 3297 4056 
Q 2913 4056 2559 3954 
Q 2206 3853 1906 3653 
Q 1416 3334 1139 2817 
Q 863 2300 863 1697 
Q 863 1200 1042 765 
Q 1222 331 1563 0 
Q 1891 -325 2322 -495 
Q 2753 -666 3244 -666 
Q 3647 -666 4036 -530 
Q 4425 -394 4750 -141 
L 5031 -488 
Q 4641 -791 4180 -952 
Q 3719 -1113 3244 -1113 
Q 2666 -1113 2153 -908 
Q 1641 -703 1241 -313 
Q 841 78 631 592 
Q 422 1106 422 1697 
Q 422 2266 634 2781 
Q 847 3297 1241 3688 
Q 1644 4084 2172 4295 
Q 2700 4506 3291 4506 
Q 3953 4506 4520 4234 
Q 5088 3963 5472 3463 
Q 5706 3156 5829 2797 
Q 5953 2438 5953 2053 
Q 5953 1231 5456 756 
Q 4959 281 4084 263 
L 4084 744 
z
" transform="scale(0.015625)"/>
      <path id="DejaVuSans-39" d="M 703 97 
L 703 672 
Q 941 559 1184 500 
Q 1428 441 1663 441 
Q 2288 441 2617 861 
Q 2947 1281 2994 2138 
Q 2813 1869 2534 1725 
Q 2256 1581 1919 1581 
Q 1219 1581 811 2004 
Q 403 2428 403 3163 
Q 403 3881 828 4315 
Q 1253 4750 1959 4750 
Q 2769 4750 3195 4129 
Q 3622 3509 3622 2328 
Q 3622 1225 3098 567 
Q 2575 -91 1691 -91 
Q 1453 -91 1209 -44 
Q 966 3 703 97 
z
M 1959 2075 
Q 2384 2075 2632 2365 
Q 2881 2656 2881 3163 
Q 2881 3666 2632 3958 
Q 2384 4250 1959 4250 
Q 1534 4250 1286 3958 
Q 1038 3666 1038 3163 
Q 1038 2656 1286 2365 
Q 1534 2075 1959 2075 
z
" transform="scale(0.015625)"/>
     </defs>
     <use xlink:href="#DejaVuSans-42"/>
     <use xlink:href="#DejaVuSans-65" transform="translate(68.603516 0)"/>
     <use xlink:href="#DejaVuSans-73" transform="translate(130.126953 0)"/>
     <use xlink:href="#DejaVuSans-74" transform="translate(182.226562 0)"/>
     <use xlink:href="#DejaVuSans-20" transform="translate(221.435547 0)"/>
     <use xlink:href="#DejaVuSans-56" transform="translate(253.222656 0)"/>
     <use xlink:href="#DejaVuSans-61" transform="translate(313.880859 0)"/>
     <use xlink:href="#DejaVuSans-6c" transform="translate(375.160156 0)"/>
     <use xlink:href="#DejaVuSans-20" transform="translate(402.943359 0)"/>
     <use xlink:href="#DejaVuSans-4c" transform="translate(434.730469 0)"/>
     <use xlink:href="#DejaVuSans-6f" transform="translate(488.693359 0)"/>
     <use xlink:href="#DejaVuSans-73" transform="translate(549.875 0)"/>
     <use xlink:href="#DejaVuSans-73" transform="translate(601.974609 0)"/>
     <use xlink:href="#DejaVuSans-3a" transform="translate(654.074219 0)"/>
     <use xlink:href="#DejaVuSans-20" transform="translate(687.765625 0)"/>
     <use xlink:href="#DejaVuSans-31" transform="translate(719.552734 0)"/>
     <use xlink:href="#DejaVuSans-2e" transform="translate(783.175781 0)"/>
     <use xlink:href="#DejaVuSans-30" transform="translate(814.962891 0)"/>
     <use xlink:href="#DejaVuSans-35" transform="translate(878.585938 0)"/>
     <use xlink:href="#DejaVuSans-32" transform="translate(942.208984 0)"/>
     <use xlink:href="#DejaVuSans-30" transform="translate(1005.832031 0)"/>
     <use xlink:href="#DejaVuSans-20" transform="translate(1069.455078 0)"/>
     <use xlink:href="#DejaVuSans-40" transform="translate(1101.242188 0)"/>
     <use xlink:href="#DejaVuSans-20" transform="translate(1201.242188 0)"/>
     <use xlink:href="#DejaVuSans-65" transform="translate(1233.029297 0)"/>
     <use xlink:href="#DejaVuSans-70" transform="translate(1294.552734 0)"/>
     <use xlink:href="#DejaVuSans-6f" transform="translate(1358.029297 0)"/>
     <use xlink:href="#DejaVuSans-63" transform="translate(1419.210938 0)"/>
     <use xlink:href="#DejaVuSans-68" transform="translate(1474.191406 0)"/>
     <use xlink:href="#DejaVuSans-20" transform="translate(1537.570312 0)"/>
     <use xlink:href="#DejaVuSans-31" transform="translate(1569.357422 0)"/>
     <use xlink:href="#DejaVuSans-39" transform="translate(1632.980469 0)"/>
    </g>
   </g>
   <g id="text_16">
    <!-- CIFAR-10 CNN Baseline - Loss -->
    <g transform="translate(218.249687 20.88) scale(0.12 -0.12)">
     <defs>
      <path id="DejaVuSans-43" d="M 4122 4306 
L 4122 3641 
Q 3803 3938 3442 4084 
Q 3081 4231 2675 4231 
Q 1875 4231 1450 3742 
Q 1025 3253 1025 2328 
Q 1025 1406 1450 917 
Q 1875 428 2675 428 
Q 3081 428 3442 575 
Q 3803 722 4122 1019 
L 4122 359 
Q 3791 134 3420 21 
Q 3050 -91 2638 -91 
Q 1578 -91 968 557 
Q 359 1206 359 2328 
Q 359 3453 968 4101 
Q 1578 4750 2638 4750 
Q 3056 4750 3426 4639 
Q 3797 4528 4122 4306 
z
" transform="scale(0.015625)"/>
      <path id="DejaVuSans-49" d="M 628 4666 
L 1259 4666 
L 1259 0 
L 628 0 
L 628 4666 
z
" transform="scale(0.015625)"/>
      <path id="DejaVuSans-46" d="M 628 4666 
L 3309 4666 
L 3309 4134 
L 1259 4134 
L 1259 2759 
L 3109 2759 
L 3109 2228 
L 1259 2228 
L 1259 0 
L 628 0 
L 628 4666 
z
" transform="scale(0.015625)"/>
      <path id="DejaVuSans-41" d="M 2188 4044 
L 1331 1722 
L 3047 1722 
L 2188 4044 
z
M 1831 4666 
L 2547 4666 
L 4325 0 
L 3669 0 
L 3244 1197 
L 1141 1197 
L 716 0 
L 50 0 
L 1831 4666 
z
" transform="scale(0.015625)"/>
      <path id="DejaVuSans-52" d="M 2841 2188 
Q 3044 2119 3236 1894 
Q 3428 1669 3622 1275 
L 4263 0 
L 3584 0 
L 2988 1197 
Q 2756 1666 2539 1819 
Q 2322 1972 1947 1972 
L 1259 1972 
L 1259 0 
L 628 0 
L 628 4666 
L 2053 4666 
Q 2853 4666 3247 4331 
Q 3641 3997 3641 3322 
Q 3641 2881 3436 2590 
Q 3231 2300 2841 2188 
z
M 1259 4147 
L 1259 2491 
L 2053 2491 
Q 2509 2491 2742 2702 
Q 2975 2913 2975 3322 
Q 2975 3731 2742 3939 
Q 2509 4147 2053 4147 
L 1259 4147 
z
" transform="scale(0.015625)"/>
      <path id="DejaVuSans-2d" d="M 313 2009 
L 1997 2009 
L 1997 1497 
L 313 1497 
L 313 2009 
z
" transform="scale(0.015625)"/>
      <path id="DejaVuSans-4e" d="M 628 4666 
L 1478 4666 
L 3547 763 
L 3547 4666 
L 4159 4666 
L 4159 0 
L 3309 0 
L 1241 3903 
L 1241 0 
L 628 0 
L 628 4666 
z
" transform="scale(0.015625)"/>
      <path id="DejaVuSans-69" d="M 603 3500 
L 1178 3500 
L 1178 0 
L 603 0 
L 603 3500 
z
M 603 4863 
L 1178 4863 
L 1178 4134 
L 603 4134 
L 603 4863 
z
" transform="scale(0.015625)"/>
      <path id="DejaVuSans-6e" d="M 3513 2113 
L 3513 0 
L 2938 0 
L 2938 2094 
Q 2938 2591 2744 2837 
Q 2550 3084 2163 3084 
Q 1697 3084 1428 2787 
Q 1159 2491 1159 1978 
L 1159 0 
L 581 0 
L 581 3500 
L 1159 3500 
L 1159 2956 
Q 1366 3272 1645 3428 
Q 1925 3584 2291 3584 
Q 2894 3584 3203 3211 
Q 3513 2838 3513 2113 
z
" transform="scale(0.015625)"/>
     </defs>
     <use xlink:href="#DejaVuSans-43"/>
     <use xlink:href="#DejaVuSans-49" transform="translate(69.824219 0)"/>
     <use xlink:href="#DejaVuSans-46" transform="translate(99.316406 0)"/>
     <use xlink:href="#DejaVuSans-41" transform="translate(147.710938 0)"/>
     <use xlink:href="#DejaVuSans-52" transform="translate(216.119141 0)"/>
     <use xlink:href="#DejaVuSans-2d" transform="translate(281.601562 0)"/>
     <use xlink:href="#DejaVuSans-31" transform="translate(317.685547 0)"/>
     <use xlink:href="#DejaVuSans-30" transform="translate(381.308594 0)"/>
     <use xlink:href="#DejaVuSans-20" transform="translate(444.931641 0)"/>
     <use xlink:href="#DejaVuSans-43" transform="translate(476.71875 0)"/>
     <use xlink:href="#DejaVuSans-4e" transform="translate(546.542969 0)"/>
     <use xlink:href="#DejaVuSans-4e" transform="translate(621.347656 0)"/>
     <use xlink:href="#DejaVuSans-20" transform="translate(696.152344 0)"/>
     <use xlink:href="#DejaVuSans-42" transform="translate(727.939453 0)"/>
     <use xlink:href="#DejaVuSans-61" transform="translate(796.542969 0)"/>
     <use xlink:href="#DejaVuSans-73" transform="translate(857.822266 0)"/>
     <use xlink:href="#DejaVuSans-65" transform="translate(909.921875 0)"/>
     <use xlink:href="#DejaVuSans-6c" transform="translate(971.445312 0)"/>
     <use xlink:href="#DejaVuSans-69" transform="translate(999.228516 0)"/>
     <use xlink:href="#DejaVuSans-6e" transform="translate(1027.011719 0)"/>
     <use xlink:href="#DejaVuSans-65" transform="translate(1090.390625 0)"/>
     <use xlink:href="#DejaVuSans-20" transform="translate(1151.914062 0)"/>
     <use xlink:href="#DejaVuSans-2d" transform="translate(1183.701172 0)"/>
     <use xlink:href="#DejaVuSans-20" transform="translate(1219.785156 0)"/>
     <use xlink:href="#DejaVuSans-4c" transform="translate(1251.572266 0)"/>
     <use xlink:href="#DejaVuSans-6f" transform="translate(1305.535156 0)"/>
     <use xlink:href="#DejaVuSans-73" transform="translate(1366.716797 0)"/>
     <use xlink:href="#DejaVuSans-73" transform="translate(1418.816406 0)"/>
    </g>
   </g>
   <g id="legend_1">
    <g id="patch_7">
     <path d="M 451.70625 64.23625 
L 558.2 64.23625 
Q 560.2 64.23625 560.2 62.23625 
L 560.2 33.88 
Q 560.2 31.88 558.2 31.88 
L 451.70625 31.88 
Q 449.70625 31.88 449.70625 33.88 
L 449.70625 62.23625 
Q 449.70625 64.23625 451.70625 64.23625 
z
" style="fill: #ffffff; opacity: 0.8; stroke: #cccccc; stroke-linejoin: miter"/>
    </g>
    <g id="line2d_27">
     <path d="M 453.70625 39.978437 
L 463.70625 39.978437 
L 473.70625 39.978437 
" style="fill: none; stroke: #1f77b4; stroke-width: 1.5; stroke-linecap: square"/>
     <g>
      <use xlink:href="#mbff38e684a" x="463.70625" y="39.978437" style="fill: #1f77b4; stroke: #1f77b4"/>
     </g>
    </g>
    <g id="text_17">
     <!-- Train Loss -->
     <g transform="translate(481.70625 43.478437) scale(0.1 -0.1)">
      <defs>
       <path id="DejaVuSans-54" d="M -19 4666 
L 3928 4666 
L 3928 4134 
L 2272 4134 
L 2272 0 
L 1638 0 
L 1638 4134 
L -19 4134 
L -19 4666 
z
" transform="scale(0.015625)"/>
       <path id="DejaVuSans-72" d="M 2631 2963 
Q 2534 3019 2420 3045 
Q 2306 3072 2169 3072 
Q 1681 3072 1420 2755 
Q 1159 2438 1159 1844 
L 1159 0 
L 581 0 
L 581 3500 
L 1159 3500 
L 1159 2956 
Q 1341 3275 1631 3429 
Q 1922 3584 2338 3584 
Q 2397 3584 2469 3576 
Q 2541 3569 2628 3553 
L 2631 2963 
z
" transform="scale(0.015625)"/>
      </defs>
      <use xlink:href="#DejaVuSans-54"/>
      <use xlink:href="#DejaVuSans-72" transform="translate(46.333984 0)"/>
      <use xlink:href="#DejaVuSans-61" transform="translate(87.447266 0)"/>
      <use xlink:href="#DejaVuSans-69" transform="translate(148.726562 0)"/>
      <use xlink:href="#DejaVuSans-6e" transform="translate(176.509766 0)"/>
      <use xlink:href="#DejaVuSans-20" transform="translate(239.888672 0)"/>
      <use xlink:href="#DejaVuSans-4c" transform="translate(271.675781 0)"/>
      <use xlink:href="#DejaVuSans-6f" transform="translate(325.638672 0)"/>
      <use xlink:href="#DejaVuSans-73" transform="translate(386.820312 0)"/>
      <use xlink:href="#DejaVuSans-73" transform="translate(438.919922 0)"/>
     </g>
    </g>
    <g id="line2d_28">
     <path d="M 453.70625 54.656563 
L 463.70625 54.656563 
L 473.70625 54.656563 
" style="fill: none; stroke: #ff7f0e; stroke-width: 1.5; stroke-linecap: square"/>
     <g>
      <use xlink:href="#mfa36945d49" x="463.70625" y="54.656563" style="fill: #ff7f0e; stroke: #ff7f0e"/>
     </g>
    </g>
    <g id="text_18">
     <!-- Validation Loss -->
     <g transform="translate(481.70625 58.156563) scale(0.1 -0.1)">
      <defs>
       <path id="DejaVuSans-64" d="M 2906 2969 
L 2906 4863 
L 3481 4863 
L 3481 0 
L 2906 0 
L 2906 525 
Q 2725 213 2448 61 
Q 2172 -91 1784 -91 
Q 1150 -91 751 415 
Q 353 922 353 1747 
Q 353 2572 751 3078 
Q 1150 3584 1784 3584 
Q 2172 3584 2448 3432 
Q 2725 3281 2906 2969 
z
M 947 1747 
Q 947 1113 1208 752 
Q 1469 391 1925 391 
Q 2381 391 2643 752 
Q 2906 1113 2906 1747 
Q 2906 2381 2643 2742 
Q 2381 3103 1925 3103 
Q 1469 3103 1208 2742 
Q 947 2381 947 1747 
z
" transform="scale(0.015625)"/>
      </defs>
      <use xlink:href="#DejaVuSans-56"/>
      <use xlink:href="#DejaVuSans-61" transform="translate(60.658203 0)"/>
      <use xlink:href="#DejaVuSans-6c" transform="translate(121.9375 0)"/>
      <use xlink:href="#DejaVuSans-69" transform="translate(149.720703 0)"/>
      <use xlink:href="#DejaVuSans-64" transform="translate(177.503906 0)"/>
      <use xlink:href="#DejaVuSans-61" transform="translate(240.980469 0)"/>
      <use xlink:href="#DejaVuSans-74" transform="translate(302.259766 0)"/>
      <use xlink:href="#DejaVuSans-69" transform="translate(341.46875 0)"/>
      <use xlink:href="#DejaVuSans-6f" transform="translate(369.251953 0)"/>
      <use xlink:href="#DejaVuSans-6e" transform="translate(430.433594 0)"/>
      <use xlink:href="#DejaVuSans-20" transform="translate(493.8125 0)"/>
      <use xlink:href="#DejaVuSans-4c" transform="translate(525.599609 0)"/>
      <use xlink:href="#DejaVuSans-6f" transform="translate(579.5625 0)"/>
      <use xlink:href="#DejaVuSans-73" transform="translate(640.744141 0)"/>
      <use xlink:href="#DejaVuSans-73" transform="translate(692.84375 0)"/>
     </g>
    </g>
   </g>
  </g>
 </g>
 <defs>
  <clipPath id="p981727e785">
   <rect x="47.81" y="26.88" width="517.39" height="291.16"/>
  </clipPath>
 </defs>
</svg>
